<mxfile host="Electron" modified="2024-06-09T20:26:30.038Z" agent="Mozilla/5.0 (Macintosh; Intel Mac OS X 10_15_7) AppleWebKit/537.36 (KHTML, like Gecko) draw.io/24.5.1 Chrome/124.0.6367.207 Electron/30.0.6 Safari/537.36" etag="DT0ihXS-C-l3iOC_AaUu" version="24.5.1" type="device">
  <diagram name="Page-1" id="TpDfKro669fYfihX2-AQ">
    <mxGraphModel dx="1036" dy="1856" grid="1" gridSize="10" guides="1" tooltips="1" connect="1" arrows="1" fold="1" page="1" pageScale="1" pageWidth="850" pageHeight="1100" math="0" shadow="0">
      <root>
        <mxCell id="0" />
        <mxCell id="1" parent="0" />
        <mxCell id="3fLLV2zuDYUBY8ywcXHl-12" value="Conta AWS " style="points=[[0,0],[0.25,0],[0.5,0],[0.75,0],[1,0],[1,0.25],[1,0.5],[1,0.75],[1,1],[0.75,1],[0.5,1],[0.25,1],[0,1],[0,0.75],[0,0.5],[0,0.25]];outlineConnect=0;gradientColor=none;html=1;whiteSpace=wrap;fontSize=12;fontStyle=0;shape=mxgraph.aws4.group;grIcon=mxgraph.aws4.group_aws_cloud_alt;strokeColor=#232F3E;fillColor=none;verticalAlign=top;align=left;spacingLeft=30;fontColor=#232F3E;dashed=0;labelBackgroundColor=#ffffff;container=1;pointerEvents=0;collapsible=0;recursiveResize=0;" vertex="1" parent="1">
          <mxGeometry x="240" y="-670" width="581" height="229.5" as="geometry" />
        </mxCell>
        <mxCell id="3fLLV2zuDYUBY8ywcXHl-13" value="EC2&lt;br&gt;(Servidor)" style="sketch=0;points=[[0,0,0],[0.25,0,0],[0.5,0,0],[0.75,0,0],[1,0,0],[0,1,0],[0.25,1,0],[0.5,1,0],[0.75,1,0],[1,1,0],[0,0.25,0],[0,0.5,0],[0,0.75,0],[1,0.25,0],[1,0.5,0],[1,0.75,0]];outlineConnect=0;fontColor=#232F3E;fillColor=#ED7100;strokeColor=#ffffff;dashed=0;verticalLabelPosition=bottom;verticalAlign=top;align=center;html=1;fontSize=12;fontStyle=0;aspect=fixed;shape=mxgraph.aws4.resourceIcon;resIcon=mxgraph.aws4.ec2;" vertex="1" parent="3fLLV2zuDYUBY8ywcXHl-12">
          <mxGeometry x="50" y="90" width="59" height="59" as="geometry" />
        </mxCell>
        <mxCell id="3fLLV2zuDYUBY8ywcXHl-14" value="RDS&lt;br&gt;(Banco de Dados)" style="outlineConnect=0;dashed=0;verticalLabelPosition=bottom;verticalAlign=top;align=center;html=1;shape=mxgraph.aws3.rds;fillColor=#2E73B8;gradientColor=none;" vertex="1" parent="3fLLV2zuDYUBY8ywcXHl-12">
          <mxGeometry x="190" y="90" width="50" height="60" as="geometry" />
        </mxCell>
        <mxCell id="3fLLV2zuDYUBY8ywcXHl-15" style="edgeStyle=orthogonalEdgeStyle;rounded=0;orthogonalLoop=1;jettySize=auto;html=1;entryX=0;entryY=0.5;entryDx=0;entryDy=0;entryPerimeter=0;flowAnimation=0;" edge="1" parent="3fLLV2zuDYUBY8ywcXHl-12" source="3fLLV2zuDYUBY8ywcXHl-13" target="3fLLV2zuDYUBY8ywcXHl-14">
          <mxGeometry relative="1" as="geometry" />
        </mxCell>
        <mxCell id="3fLLV2zuDYUBY8ywcXHl-16" value="EC2 instance contents" style="points=[[0,0],[0.25,0],[0.5,0],[0.75,0],[1,0],[1,0.25],[1,0.5],[1,0.75],[1,1],[0.75,1],[0.5,1],[0.25,1],[0,1],[0,0.75],[0,0.5],[0,0.25]];outlineConnect=0;gradientColor=none;html=1;whiteSpace=wrap;fontSize=12;fontStyle=0;container=1;pointerEvents=0;collapsible=0;recursiveResize=0;shape=mxgraph.aws4.group;grIcon=mxgraph.aws4.group_ec2_instance_contents;strokeColor=#D86613;fillColor=none;verticalAlign=top;align=left;spacingLeft=30;fontColor=#D86613;dashed=0;" vertex="1" parent="3fLLV2zuDYUBY8ywcXHl-12">
          <mxGeometry x="310" y="50.5" width="229" height="139" as="geometry" />
        </mxCell>
        <mxCell id="3fLLV2zuDYUBY8ywcXHl-17" style="edgeStyle=orthogonalEdgeStyle;rounded=0;orthogonalLoop=1;jettySize=auto;html=1;flowAnimation=0;" edge="1" parent="3fLLV2zuDYUBY8ywcXHl-16" source="3fLLV2zuDYUBY8ywcXHl-18" target="3fLLV2zuDYUBY8ywcXHl-20">
          <mxGeometry relative="1" as="geometry" />
        </mxCell>
        <mxCell id="3fLLV2zuDYUBY8ywcXHl-18" value="FastAPI&#xa;(Backend)" style="shape=image;verticalLabelPosition=bottom;labelBackgroundColor=default;verticalAlign=top;aspect=fixed;imageAspect=0;image=data:image/png,iVBORw0KGgoAAAANSUhEUgAAAOEAAADhCAMAAAAJbSJIAAAAkFBMVEUFmYv///8AmowAkYGMy8Sl1tEAnY4AlIUFmYwAmooAn4/7/v4AjX0AkIH0+/oAopPn9PN/ysIlppru+fhYu7GQ0coApZbg8vCd1c/S6ebB4t6t29ZuxLu84t7I5uNItKl7ycFJtatuvrY0r6JSsKWq3diMycFKraJjwbYrp5s5oZSd0Mqz29d7v7dpuK9KsKWEgjpQAAAN4ElEQVR4nM2daZeiOhCGQ2wTAgqoLOKu2D3abff9///ugtoqkLClipn328ycIz5DTFVqCzFQZTszz4sXy2B32idn1zQJIabpnpP9aRIsF7HnzRzcb2AQvI+exevhx2o7dQknLJOglGSiVNDsz+nfu9Pt6mO4jmd4XwOLcBMc/iQhy3DuXDKl/yYIYWHy5zDfIH0TeELHiyeJEJZQcsnELCG2QezBr1lgQmezPKR4rB3e/YUywZLDMrZhvxIoYRQcE4tUrMpaSErcxJ97kF8KjNCJ5olgndleZYlkGYEtVyBCb70KgfgyMTE9rIH2VxDC2WQbku5rUyZKwm0A8h71CZ2NLyxQul9Z5BTrQ+oSzi4nxmBf31NUWKu1LqMm4XobCiy+VKYQ4X799widZQK3uahlJVrvUYNwfQLcPavE2ErDpetMGJ3CLo5LN4lw1dl2dCSMJp0cs+5iLOjo6XQidNYJ5v4iFRXJopPH2oUwOrk9490UHros1faEzrynDaYsxpbtd9XWhPHJ6nuBPpV6ADE24XLa7w5TFDu3dQDaEUYnHA+0jdxdu021FWGc/N0XeJPYtlqpbQiXyd+Guytps1KbEzqnf+EF3sR2zffUxoTRPwSYno9XjX+MTQlj2GME1/0Ato9gCdcC9g2etW2qYA3PG40I7bkLa+U/A1P7M8R0CUcYwPqh5ni3hvgcdw5EaO+A9xjOjaX2DzGTCBqcNuoJ7Qn0SWIcGF8ghMRtgFhPuIIG5GfP+IAhJO5Em9BeMf1NIS9+MZxvIELCJnVvsYYQfokSfnQM5weKsH6h1hDu4E/zo9SpnB3BCFNEDUI7gD/Nj/fpB3t/4AiJqDYalYRzhHgMzY4+3hSQkLiXroRrBMDBd/aziRgkIZlWHRgrCGOMiOHn1WGOYD9UsIqThpowQjjQ09FtW4hBX2F20lAjKgmdE0LMkPPb1r4GJiRspbQZSkKUA+/gvicMx+AfrXRuVIRLDEB+vAet3wbQH03Zoh1hjBJ04r8nuhX8OySJYkOVE0YogIOf38/3wd9huqEqdhs5IU7Uafz4X06gd5pMQv5TlBJeUCLbY//xAFCX5iFLGrmREcZTjOfzF7NMUQjJWRZ/kxAihX75x9NkYXw+yQLFEqsoIRzipAc/n//BM4SN5iomCfeXCT2cBPbo/fmIaITxBJKlUMvR/hKhjeGtpWt0+vKMDRZhuk7rCS84Ofrx6xluPYKO/fzKDEv7aZEQ40SRiv+8Lp85GiEh26LdLxJOcDJMZu6/NkAkpMWYRoHQw6kzHP/knjLB2ktJ5oIXNpsCoQ8eHb2K5wthDoiExDpUES5ClIeO3/IPhYuWyjTNbzY5QueEskb5NO9NOYDRUolE3rPJEV5wthleSPTN/qA85lc0nzvNEU5xjP2fQjla9InxmKfYVkW4RgGko2KuNkYmJCyWEzr/oTxu8F8B0NjgWcObhG9LCS84Gykp+VEgKe5KhQsZobPC8dcOpTPbBXUrzSResopPwo1GR1aFPsshMJgkfpWoG0sIUdwZs2jsMwEl8askdmXCGcrBl3NJARpUEr9CgtklwglOfG1YBrTBkvgVsoIiobfFeE7J2GcCTOJX6OgUCHFMBZe8QtAkvloPg3EndA4YT+E/spwXaBJfrW87RxiFCPuMOZIGoaNzH4Qi8XKEc5Rs4VYGCJ3EV2qdIwwxnG4qL3IFTuKrxJJXwgglH/ohzzxDJ/EVosR5IQwwjOGnok550Q8hsd6fhPYR4QEjVakSQhJfKvrzJNwgpHw5U1VHvPVESJLoQbhEWKRjZRX2ri/C8PJLiGHu82H8nDCS+HJdt7qM0Evgzb2pbtxBSeLLJK45jIwwBp74kGrgKwGRkvgSURbdCRGyMYOKjpaeXBpyrzzNCOHnBowPakCsJL5EzL8TmtCLlCv8tauc3jYawtiNcAO+SPlXxStES+LLvkh0JQR32fifqtY5vCR+WZnjlhIegH+GdCQ72T+El8QvyWSTjBA8E8TPVYCoSfySjnZKCF5oyVWVnjdhJvFLSl1TYqyBY1AV/tpVmEn8kpJNSghd5GXW9HaiJvGLci8GsT9gP3P8XQ1oHEeDltLwgcSXQZwVHF2mQd38kfWwrQKNjOq3TWZbUI9mUNNn1UVDjZfoz4g3hSTMuiehpdMkRROPRKBt2tIwvqYmGjEBGnoE9HDIj/DzR7X82PSISEBjeyPN6XES2QedsA7lMVmC4aXbTAIOaGz0vhJfEMg2UdF0VkVz6VaIiSHZwaXv+TfwgFxDv26DBQSwrNtsPaWqXrphKzYhezDCEYKxD0aaOz1bEbBYKacIlkK7Ao75BGw62bgqONNR+nUpbEugXBoMYx/rzyKiCYEKJfLKpvhu+tHP4dAzAbIV/AhvKWKAqJwA68MbwRt7G6LuBoyw0FABIpAiTShCTuGNPUzpVEoI8jusDON31BdIqjgjhNhLVWUXGnL0LUWmdC8FsIcUx18D4Lvaw7O+T5PrngRSDGTFUp8GwC9FMPZgVbapX6p/tsDx14CUni30z4d1YfwuOkOF/tPz4UT3jD+oytl31BosiyoC/TgNgr8G2L4nltqxtnH9XL/WgjH2V/GFbryUfyKE8T/BXmEWL9WMeQ8Q/DXA4sUs5q2Xt5A2VGjKA6xdpFNPM/eEEMY3vgdwif4s9zTbarhtvNQ9qS/Y/kt/ppcD5oe31qpZ1sA9Qx82MbTy+LxlSn484jXmE3ZYHf1CqMWoVrE3vyTY6tOsFgO8nqZadWnwuW4YP69rPQ3O8DmVHmP35AI09lf956WEDu6Eg4L4TyUhdAPtta4NvDaxUvy76jAZwY45M61rbaIx7/NmFVUz1E1aOXuJrCVSjXCFqsuHoXtN7jXCRp/3b1UW3EC3zzLXwKrVV6s4yeVV4NMkHrX6QZ/LVO2qww/mEcM7IcrQZ4VMdQExeNcedX97ZjD6nlT6VAbmbPBeGrGfGXi9ayqpMxxz+C6FR+8a1iRBmZStGAiDh8Lrb/5K2J9rqoyP2wjjQF56SO1jX7upMt0fwW8F4qUPuD/HTdnUtoVvnWXLF0IPvsdSrnF5vuhVG/g2EyrsF8Le3BpFhByk7KIgtjdeCSHraCtkKpr0darxVRKLHGEEWrGvlPk6TfipGcI8F1qYbdKT0TflEeQ5Rof+R34+TV/xKGkqzhkjLNLHQOFfwhnOSMGiBjKXZjKG79cTD8P7mPX11otJ5BKDjzIo0npsaQ9Cpw+TyKlkjR4Q1ui1i7tAaJxwRgjnxN0y4Qb5JognYYwzBjonWYtwgtBxKZ+biDT7MqfBvgT4DhvGv0m8yWZf9mEwyo43hrHPj4N+IezhDDUoTcLE8NeIeJ2s8jpHeIPufpcGRUYoo1xYpCDEP2EMijV+KK3rv6cKCeECe5nyQqQN5bISmhsFXZjJvsI2GAW3FKChoqzC1aT5ufob5O20MLdmgeJjnPNV9YW7EXBziXyac7xxRrVahUBJgXDGMH+KhST+BeVXWHQMi3eUoGZpCjViOJaiaJCKhB5mcDifxH9HGTbkF+sESncFIV3icVUuiY9zQ0L9XUGGjbjZvCbxMcL4maUo8kju7MIZXX7VaxLfM+EJTeaWYwiSe9cuaC/xNYnvYxh72f2AEkJ7hYX4ksSH6J4sSXrRuuz+w+iM8PSrntFSFGOfyCJ50jssF0hxt2cSH+UCCFfaBCm/h3SHY/cfSXyUwfNMctGEkhDnHoFnEn+J4a+VbH0VIVLe+7c3w+YIr3CrqIFQ3em8RrCKD7f0DT6+RuUXyVYQYvwUf5P4KP6aso1Vfbc6vFW8xxIx7iiRWsIawnS3gX6L9z4+zblIMjHFLlNNaETQp+F7En8Pf7G6W1FaXUFobGDvdr4n8dfg2wyV3uXchNBYglaD3ZL44DWWJplWDkytJIS9uuSWxIe/kqyqKLeW0Agg3+Ioxrhkxq0ZZFhDaEMiZkn8N+htxlVdo9GQ0LABR9Jzx3DAq2RrB1bUERrGBOotcjNrqIANc7v1EznqCcEWKnfBb6+sXaKNCFNEmIXKzwasvyYaTUttQJgaDReCceDHoNEnGlabiTaExgVibt1gB2rsRVI9Gb0dobGxABBBA1wibDitoiGhEQFMkIR8g1WniW6Ehrfqq1K6gSiZNJ500Jgwtf29tkRXynprPuGvOWF67kn6bAGr0LbNzJ82hEa8/Rdeo+W3mojTitDwdv31D6nkBu2GjbQjTM3G+W++RpNYSdv5hW0JjWjXQ5WmSpRNWg/8aU1o2Bf3L71Gk4WL9lNS2xMahrPrddDEQ6E6KApMaNibbe9LVVj7bnPhOhGmm2pg9btULXfYcV5TR0LDmK2moicHwBRsuus8prgzYWo4dj29R+ZONEbcahBmP0cL/+coLD/WmTOtQ5hq44eozfxUTE+aI4o1CQ17sXPRGFlqILQHa+oSpozxjuHUbljp709/Dro+oZFF4/wQ+HxMSeg3CBU2EAhh6uYsvhMC5gVQJpK3DdBkWyDC9D16660A2VoFY/u1BzamH4wwk/P+k4REY+OhgoTJ6R10LjEoYapo/bF1RbZeWwfwGePu/mMNPdIWmjBbrtHcDzlr5+9YFg/9YTSDv0MCnvCm6H1yTBJXpGs2lWpRXv9JuMn2OFnCjyO+CYswlR1tLl8TPwkZ5+nukYpSkYnS7A+CcMKmif/xddlE8K/uIUTCq+yZ50XxYhhMVv42OU8znZO9v5oEy0UceR7Cuszrf9V+2MQFvUIxAAAAAElFTkSuQmCC;" vertex="1" parent="3fLLV2zuDYUBY8ywcXHl-16">
          <mxGeometry x="30" y="46.31" width="50.5" height="50.5" as="geometry" />
        </mxCell>
        <mxCell id="3fLLV2zuDYUBY8ywcXHl-19" style="edgeStyle=orthogonalEdgeStyle;rounded=0;orthogonalLoop=1;jettySize=auto;html=1;entryX=1;entryY=0.5;entryDx=0;entryDy=0;flowAnimation=0;" edge="1" parent="3fLLV2zuDYUBY8ywcXHl-16" source="3fLLV2zuDYUBY8ywcXHl-20" target="3fLLV2zuDYUBY8ywcXHl-18">
          <mxGeometry relative="1" as="geometry" />
        </mxCell>
        <mxCell id="3fLLV2zuDYUBY8ywcXHl-20" value="NGINX&#xa;(reverse proxy)" style="shape=image;verticalLabelPosition=bottom;labelBackgroundColor=default;verticalAlign=top;aspect=fixed;imageAspect=0;image=https://static-00.iconduck.com/assets.00/file-type-nginx-icon-1793x2048-yt5u3fm7.png;" vertex="1" parent="3fLLV2zuDYUBY8ywcXHl-16">
          <mxGeometry x="150" y="45.11" width="46.32" height="52.89" as="geometry" />
        </mxCell>
        <mxCell id="3fLLV2zuDYUBY8ywcXHl-21" value="GitHub&lt;br&gt;(repositÃ³rio remoto)" style="dashed=0;outlineConnect=0;html=1;align=center;labelPosition=center;verticalLabelPosition=bottom;verticalAlign=top;shape=mxgraph.weblogos.github" vertex="1" parent="1">
          <mxGeometry x="365" y="-770" width="60" height="60" as="geometry" />
        </mxCell>
        <mxCell id="3fLLV2zuDYUBY8ywcXHl-22" style="edgeStyle=orthogonalEdgeStyle;rounded=0;orthogonalLoop=1;jettySize=auto;html=1;startArrow=classic;startFill=1;flowAnimation=0;endArrow=none;endFill=0;" edge="1" parent="1" source="3fLLV2zuDYUBY8ywcXHl-13" target="3fLLV2zuDYUBY8ywcXHl-21">
          <mxGeometry relative="1" as="geometry">
            <Array as="points">
              <mxPoint x="319" y="-620" />
              <mxPoint x="395" y="-620" />
            </Array>
          </mxGeometry>
        </mxCell>
        <mxCell id="3fLLV2zuDYUBY8ywcXHl-28" style="edgeStyle=orthogonalEdgeStyle;rounded=0;orthogonalLoop=1;jettySize=auto;html=1;startArrow=classic;startFill=1;flowAnimation=0;" edge="1" parent="1" source="3fLLV2zuDYUBY8ywcXHl-24" target="3fLLV2zuDYUBY8ywcXHl-27">
          <mxGeometry relative="1" as="geometry" />
        </mxCell>
        <mxCell id="3fLLV2zuDYUBY8ywcXHl-24" value="Mobile&lt;br&gt;(celular)" style="sketch=0;outlineConnect=0;fontColor=#232F3E;gradientColor=none;fillColor=#232F3D;strokeColor=none;dashed=0;verticalLabelPosition=bottom;verticalAlign=top;align=center;html=1;fontSize=12;fontStyle=0;aspect=fixed;pointerEvents=1;shape=mxgraph.aws4.mobile_client;" vertex="1" parent="1">
          <mxGeometry x="20" y="-580.5" width="31.01" height="59" as="geometry" />
        </mxCell>
        <mxCell id="3fLLV2zuDYUBY8ywcXHl-27" value="Firebase&#xa;(autenticaÃ§Ã£o)" style="shape=image;verticalLabelPosition=bottom;labelBackgroundColor=default;verticalAlign=top;aspect=fixed;imageAspect=0;image=https://upload.wikimedia.org/wikipedia/commons/thumb/c/cf/Firebase_icon.svg/2048px-Firebase_icon.svg.png;" vertex="1" parent="1">
          <mxGeometry x="130" y="-581" width="60" height="60" as="geometry" />
        </mxCell>
        <mxCell id="3fLLV2zuDYUBY8ywcXHl-29" style="edgeStyle=orthogonalEdgeStyle;rounded=0;orthogonalLoop=1;jettySize=auto;html=1;entryX=0;entryY=0.5;entryDx=0;entryDy=0;entryPerimeter=0;startArrow=classic;startFill=1;flowAnimation=0;" edge="1" parent="1" source="3fLLV2zuDYUBY8ywcXHl-27" target="3fLLV2zuDYUBY8ywcXHl-13">
          <mxGeometry relative="1" as="geometry" />
        </mxCell>
      </root>
    </mxGraphModel>
  </diagram>
</mxfile>
